<svg id="gba_fig" class="center" style="width:2000;height:2130; font-size: 80, font-family: Avenir, fill: #3D3C3F, text-anchor: middle" xmlns="http://www.w3.org/2000/svg">
				<desc>Created with Snap</desc><defs></defs><text x="400" y="20">GCF_004941405.1 NZ_CP039610.1 GBA Results Overview</text><circle cx="550" cy="450" r="100" fill="#ffffff" stroke="#000000" style="stroke-width: 2px;"></circle><text x="550" y="580" fill="#000000" stroke="#000000" style="stroke-width: 0.5px;">Start/End point:0/4995830</text><text x="20" y="920" fill="#000000" style="">NZ_CP039610.1 Acr-Aca 1</text><line x1="250" x2="250" y1="920" y2="920" fill="#ffffff" stroke="#000000" style="stroke-width: 2px;"></line><polyline points="250,915,250,925,460,925,460,930,465,920,460,910,460,915" fill="#716775" stroke="#716775" style=""></polyline><text x="250" y="910" fill="#716775" style="font-size: 12px;">Acr:WP_001529719.1</text><polyline points="148.5,915,148.5,925,244.5,925,244.5,930,249.5,920,244.5,910,244.5,915" fill="#6d8764" stroke="#6d8764" style=""></polyline><text x="148.5" y="910" fill="#6d8764" style="font-size: 12px;">Aca:WP_000035054.1</text><line x1="250" x2="250" y1="945" y2="945" fill="#ffffff" stroke="#000000" style="stroke-width: 2px;"></line><line x1="250" x2="250" y1="945" y2="950" fill="#ffffff" stroke="#000000" style="stroke-width: 2px;"></line><text x="20" y="990" fill="#000000" style="">NZ_CP039610.1 Acr-Aca 2</text><line x1="250" x2="595.5" y1="990" y2="990" fill="#ffffff" stroke="#000000" style="stroke-width: 2px;"></line><polyline points="250,990,255,980,255,985,480,985,480,995,255,995,255,1000" fill="#6d8764" stroke="#6d8764" style=""></polyline><text x="250" y="980" fill="#6d8764" style="font-size: 12px;">Aca:WP_000762342.1</text><polyline points="479,990,484,980,484,985,595,985,595,995,484,995,484,1000" fill="#716775" stroke="#716775" style=""></polyline><text x="479" y="980" fill="#716775" style="font-size: 12px;">Acr:WP_000301921.1</text><line x1="250" x2="595.5" y1="1015" y2="1015" fill="#ffffff" stroke="#000000" style="stroke-width: 2px;"></line><line x1="250" x2="250" y1="1015" y2="1020" fill="#ffffff" stroke="#000000" style="stroke-width: 2px;"></line><text x="230" y="1031" fill="#000000" style="font-size: 10px;">1068815</text><line x1="350" x2="350" y1="1015" y2="1020" fill="#ffffff" stroke="#000000" style="stroke-width: 2px;"></line><text x="330" y="1031" fill="#000000" style="font-size: 10px;">1069015</text><line x1="450" x2="450" y1="1015" y2="1020" fill="#ffffff" stroke="#000000" style="stroke-width: 2px;"></line><text x="430" y="1031" fill="#000000" style="font-size: 10px;">1069215</text><line x1="550" x2="550" y1="1015" y2="1020" fill="#ffffff" stroke="#000000" style="stroke-width: 2px;"></line><text x="530" y="1031" fill="#000000" style="font-size: 10px;">1069415</text><line x1="595.5" x2="595.5" y1="1015" y2="1020" fill="#ffffff" stroke="#000000" style="stroke-width: 2px;"></line><text x="20" y="1060" fill="#000000" style="">NZ_CP039610.1 Acr-Aca 3</text><line x1="250" x2="541" y1="1060" y2="1060" fill="#ffffff" stroke="#000000" style="stroke-width: 2px;"></line><polyline points="250,1055,250,1065,358,1065,358,1070,363,1060,358,1050,358,1055" fill="#6d8764" stroke="#6d8764" style=""></polyline><text x="250" y="1050" fill="#6d8764" style="font-size: 12px;">Aca:WP_001555460.1</text><polyline points="381,1055,381,1065,536,1065,536,1070,541,1060,536,1050,536,1055" fill="#6d8764" stroke="#6d8764" style=""></polyline><text x="381" y="1080" fill="#6d8764" style="font-size: 12px;">Aca:WP_000426364.1</text><line x1="250" x2="541" y1="1085" y2="1085" fill="#ffffff" stroke="#000000" style="stroke-width: 2px;"></line><line x1="250" x2="250" y1="1085" y2="1090" fill="#ffffff" stroke="#000000" style="stroke-width: 2px;"></line><text x="230" y="1101" fill="#000000" style="font-size: 10px;">1081685</text><line x1="350" x2="350" y1="1085" y2="1090" fill="#ffffff" stroke="#000000" style="stroke-width: 2px;"></line><text x="330" y="1101" fill="#000000" style="font-size: 10px;">1081885</text><line x1="450" x2="450" y1="1085" y2="1090" fill="#ffffff" stroke="#000000" style="stroke-width: 2px;"></line><text x="430" y="1101" fill="#000000" style="font-size: 10px;">1082085</text><line x1="541" x2="541" y1="1085" y2="1090" fill="#ffffff" stroke="#000000" style="stroke-width: 2px;"></line><text x="20" y="1130" fill="#000000" style="">NZ_CP039610.1 Acr-Aca 4</text><line x1="250" x2="715.5" y1="1130" y2="1130" fill="#ffffff" stroke="#000000" style="stroke-width: 2px;"></line><polyline points="250,1130,255,1120,255,1125,527,1125,527,1135,255,1135,255,1140" fill="#716775" stroke="#716775" style=""></polyline><text x="250" y="1120" fill="#716775" style="font-size: 12px;">Acr:WP_000509731.1</text><polyline points="541.5,1130,546.5,1120,546.5,1125,653.5,1125,653.5,1135,546.5,1135,546.5,1140" fill="#6d8764" stroke="#6d8764" style=""></polyline><text x="541.5" y="1120" fill="#6d8764" style="font-size: 12px;">Aca:WP_001191666.1</text><polyline points="623,1130,628,1120,628,1125,715,1125,715,1135,628,1135,628,1140" fill="#716775" stroke="#716775" style=""></polyline><text x="623" y="1150" fill="#716775" style="font-size: 12px;">Acr:WP_071530432.1</text><line x1="250" x2="715.5" y1="1155" y2="1155" fill="#ffffff" stroke="#000000" style="stroke-width: 2px;"></line><line x1="250" x2="250" y1="1155" y2="1160" fill="#ffffff" stroke="#000000" style="stroke-width: 2px;"></line><text x="230" y="1171" fill="#000000" style="font-size: 10px;">2081727</text><line x1="350" x2="350" y1="1155" y2="1160" fill="#ffffff" stroke="#000000" style="stroke-width: 2px;"></line><text x="330" y="1171" fill="#000000" style="font-size: 10px;">2081927</text><line x1="450" x2="450" y1="1155" y2="1160" fill="#ffffff" stroke="#000000" style="stroke-width: 2px;"></line><text x="430" y="1171" fill="#000000" style="font-size: 10px;">2082127</text><line x1="550" x2="550" y1="1155" y2="1160" fill="#ffffff" stroke="#000000" style="stroke-width: 2px;"></line><text x="530" y="1171" fill="#000000" style="font-size: 10px;">2082327</text><line x1="650" x2="650" y1="1155" y2="1160" fill="#ffffff" stroke="#000000" style="stroke-width: 2px;"></line><text x="630" y="1171" fill="#000000" style="font-size: 10px;">2082527</text><line x1="715.5" x2="715.5" y1="1155" y2="1160" fill="#ffffff" stroke="#000000" style="stroke-width: 2px;"></line><text x="20" y="1200" fill="#000000" style="">NZ_CP039610.1 Acr-Aca 5</text><line x1="250" x2="628" y1="1200" y2="1200" fill="#ffffff" stroke="#000000" style="stroke-width: 2px;"></line><polyline points="250,1195,250,1205,426,1205,426,1210,431,1200,426,1190,426,1195" fill="#716775" stroke="#716775" style=""></polyline><text x="250" y="1190" fill="#716775" style="font-size: 12px;">Acr:WP_000472034.1</text><polyline points="432,1195,432,1205,623,1205,623,1210,628,1200,623,1190,623,1195" fill="#6d8764" stroke="#6d8764" style=""></polyline><text x="432" y="1190" fill="#6d8764" style="font-size: 12px;">Aca:WP_000826514.1</text><line x1="250" x2="628" y1="1225" y2="1225" fill="#ffffff" stroke="#000000" style="stroke-width: 2px;"></line><line x1="250" x2="250" y1="1225" y2="1230" fill="#ffffff" stroke="#000000" style="stroke-width: 2px;"></line><text x="230" y="1241" fill="#000000" style="font-size: 10px;">2537585</text><line x1="350" x2="350" y1="1225" y2="1230" fill="#ffffff" stroke="#000000" style="stroke-width: 2px;"></line><text x="330" y="1241" fill="#000000" style="font-size: 10px;">2537785</text><line x1="450" x2="450" y1="1225" y2="1230" fill="#ffffff" stroke="#000000" style="stroke-width: 2px;"></line><text x="430" y="1241" fill="#000000" style="font-size: 10px;">2537985</text><line x1="550" x2="550" y1="1225" y2="1230" fill="#ffffff" stroke="#000000" style="stroke-width: 2px;"></line><text x="530" y="1241" fill="#000000" style="font-size: 10px;">2538185</text><line x1="628" x2="628" y1="1225" y2="1230" fill="#ffffff" stroke="#000000" style="stroke-width: 2px;"></line><text x="20" y="1270" fill="#000000" style="">NZ_CP039610.1 Acr-Aca 6</text><line x1="250" x2="618" y1="1270" y2="1270" fill="#ffffff" stroke="#000000" style="stroke-width: 2px;"></line><polyline points="250,1270,255,1260,255,1265,537,1265,537,1275,255,1275,255,1280" fill="#6d8764" stroke="#6d8764" style=""></polyline><text x="250" y="1260" fill="#6d8764" style="font-size: 12px;">Aca:WP_000003307.1</text><polyline points="618,1270,623,1260,623,1265,707,1265,707,1275,623,1275,623,1280" fill="#716775" stroke="#716775" style=""></polyline><text x="618" y="1260" fill="#716775" style="font-size: 12px;">Acr:WP_001521719.1</text><polyline points="536,1270,541,1260,541,1265,618,1265,618,1275,541,1275,541,1280" fill="#716775" stroke="#716775" style=""></polyline><text x="536" y="1290" fill="#716775" style="font-size: 12px;">Acr:WP_014344135.1</text><line x1="250" x2="618" y1="1295" y2="1295" fill="#ffffff" stroke="#000000" style="stroke-width: 2px;"></line><line x1="250" x2="250" y1="1295" y2="1300" fill="#ffffff" stroke="#000000" style="stroke-width: 2px;"></line><text x="230" y="1311" fill="#000000" style="font-size: 10px;">2788578</text><line x1="350" x2="350" y1="1295" y2="1300" fill="#ffffff" stroke="#000000" style="stroke-width: 2px;"></line><text x="330" y="1311" fill="#000000" style="font-size: 10px;">2788778</text><line x1="450" x2="450" y1="1295" y2="1300" fill="#ffffff" stroke="#000000" style="stroke-width: 2px;"></line><text x="430" y="1311" fill="#000000" style="font-size: 10px;">2788978</text><line x1="550" x2="550" y1="1295" y2="1300" fill="#ffffff" stroke="#000000" style="stroke-width: 2px;"></line><text x="530" y="1311" fill="#000000" style="font-size: 10px;">2789178</text><line x1="618" x2="618" y1="1295" y2="1300" fill="#ffffff" stroke="#000000" style="stroke-width: 2px;"></line><text x="20" y="1340" fill="#000000" style="">NZ_CP039610.1 Acr-Aca 7</text><line x1="250" x2="577.5" y1="1340" y2="1340" fill="#ffffff" stroke="#000000" style="stroke-width: 2px;"></line><polyline points="250,1335,250,1345,403,1345,403,1350,408,1340,403,1330,403,1335" fill="#716775" stroke="#716775" style=""></polyline><text x="250" y="1330" fill="#716775" style="font-size: 12px;">Acr:WP_000535852.1</text><polyline points="407,1335,407,1345,572,1345,572,1350,577,1340,572,1330,572,1335" fill="#6d8764" stroke="#6d8764" style=""></polyline><text x="407" y="1330" fill="#6d8764" style="font-size: 12px;">Aca:WP_000560824.1</text><line x1="250" x2="577.5" y1="1365" y2="1365" fill="#ffffff" stroke="#000000" style="stroke-width: 2px;"></line><line x1="250" x2="250" y1="1365" y2="1370" fill="#ffffff" stroke="#000000" style="stroke-width: 2px;"></line><text x="230" y="1381" fill="#000000" style="font-size: 10px;">4132550</text><line x1="350" x2="350" y1="1365" y2="1370" fill="#ffffff" stroke="#000000" style="stroke-width: 2px;"></line><text x="330" y="1381" fill="#000000" style="font-size: 10px;">4132750</text><line x1="450" x2="450" y1="1365" y2="1370" fill="#ffffff" stroke="#000000" style="stroke-width: 2px;"></line><text x="430" y="1381" fill="#000000" style="font-size: 10px;">4132950</text><line x1="550" x2="550" y1="1365" y2="1370" fill="#ffffff" stroke="#000000" style="stroke-width: 2px;"></line><text x="530" y="1381" fill="#000000" style="font-size: 10px;">4133150</text><line x1="577.5" x2="577.5" y1="1365" y2="1370" fill="#ffffff" stroke="#000000" style="stroke-width: 2px;"></line><text x="20" y="1410" fill="#000000" style="">NZ_CP039610.1 Acr-Aca 8</text><line x1="250" x2="551" y1="1410" y2="1410" fill="#ffffff" stroke="#000000" style="stroke-width: 2px;"></line><polyline points="250,1405,250,1415,400,1415,400,1420,405,1410,400,1400,400,1405" fill="#716775" stroke="#716775" style=""></polyline><text x="250" y="1400" fill="#716775" style="font-size: 12px;">Acr:WP_001159630.1</text><polyline points="406,1405,406,1415,546,1415,546,1420,551,1410,546,1400,546,1405" fill="#6d8764" stroke="#6d8764" style=""></polyline><text x="406" y="1400" fill="#6d8764" style="font-size: 12px;">Aca:WP_000362050.1</text><line x1="250" x2="551" y1="1435" y2="1435" fill="#ffffff" stroke="#000000" style="stroke-width: 2px;"></line><line x1="250" x2="250" y1="1435" y2="1440" fill="#ffffff" stroke="#000000" style="stroke-width: 2px;"></line><text x="230" y="1451" fill="#000000" style="font-size: 10px;">4258329</text><line x1="350" x2="350" y1="1435" y2="1440" fill="#ffffff" stroke="#000000" style="stroke-width: 2px;"></line><text x="330" y="1451" fill="#000000" style="font-size: 10px;">4258529</text><line x1="450" x2="450" y1="1435" y2="1440" fill="#ffffff" stroke="#000000" style="stroke-width: 2px;"></line><text x="430" y="1451" fill="#000000" style="font-size: 10px;">4258729</text><line x1="550" x2="550" y1="1435" y2="1440" fill="#ffffff" stroke="#000000" style="stroke-width: 2px;"></line><text x="530" y="1451" fill="#000000" style="font-size: 10px;">4258929</text><line x1="551" x2="551" y1="1435" y2="1440" fill="#ffffff" stroke="#000000" style="stroke-width: 2px;"></line><text x="20" y="1480" fill="#000000" style="">NZ_CP039610.1 Acr-Aca 9</text><line x1="250" x2="605" y1="1480" y2="1480" fill="#ffffff" stroke="#000000" style="stroke-width: 2px;"></line><polyline points="250,1475,250,1485,526,1485,526,1490,531,1480,526,1470,526,1475" fill="#6d8764" stroke="#6d8764" style=""></polyline><text x="250" y="1470" fill="#6d8764" style="font-size: 12px;">Aca:WP_000639149.1</text><polyline points="544,1475,544,1485,600,1485,600,1490,605,1480,600,1470,600,1475" fill="#716775" stroke="#716775" style=""></polyline><text x="544" y="1470" fill="#716775" style="font-size: 12px;">Acr:WP_077248251.1</text><line x1="250" x2="605" y1="1505" y2="1505" fill="#ffffff" stroke="#000000" style="stroke-width: 2px;"></line><line x1="250" x2="250" y1="1505" y2="1510" fill="#ffffff" stroke="#000000" style="stroke-width: 2px;"></line><text x="230" y="1521" fill="#000000" style="font-size: 10px;">4519049</text><line x1="350" x2="350" y1="1505" y2="1510" fill="#ffffff" stroke="#000000" style="stroke-width: 2px;"></line><text x="330" y="1521" fill="#000000" style="font-size: 10px;">4519249</text><line x1="450" x2="450" y1="1505" y2="1510" fill="#ffffff" stroke="#000000" style="stroke-width: 2px;"></line><text x="430" y="1521" fill="#000000" style="font-size: 10px;">4519449</text><line x1="550" x2="550" y1="1505" y2="1510" fill="#ffffff" stroke="#000000" style="stroke-width: 2px;"></line><text x="530" y="1521" fill="#000000" style="font-size: 10px;">4519649</text><line x1="605" x2="605" y1="1505" y2="1510" fill="#ffffff" stroke="#000000" style="stroke-width: 2px;"></line><text x="20" y="1550" fill="#000000" style="">NZ_CP039610.1 Acr-Aca 10</text><line x1="260" x2="510" y1="1550" y2="1550" fill="#ffffff" stroke="#000000" style="stroke-width: 2px;"></line><polyline points="260,1545,260,1555,421,1555,421,1560,426,1550,421,1540,421,1545" fill="#6d8764" stroke="#6d8764" style=""></polyline><text x="260" y="1540" fill="#6d8764" style="font-size: 12px;">Aca:WP_001165471.1</text><polyline points="480.5,1545,480.5,1555,504.5,1555,504.5,1560,509.5,1550,504.5,1540,504.5,1545" fill="#716775" stroke="#716775" style=""></polyline><text x="480.5" y="1540" fill="#716775" style="font-size: 12px;">Acr:WP_071527099.1</text><line x1="260" x2="510" y1="1575" y2="1575" fill="#ffffff" stroke="#000000" style="stroke-width: 2px;"></line><line x1="260" x2="260" y1="1575" y2="1580" fill="#ffffff" stroke="#000000" style="stroke-width: 2px;"></line><text x="240" y="1591" fill="#000000" style="font-size: 10px;">4622619</text><line x1="360" x2="360" y1="1575" y2="1580" fill="#ffffff" stroke="#000000" style="stroke-width: 2px;"></line><text x="340" y="1591" fill="#000000" style="font-size: 10px;">4622819</text><line x1="460" x2="460" y1="1575" y2="1580" fill="#ffffff" stroke="#000000" style="stroke-width: 2px;"></line><text x="440" y="1591" fill="#000000" style="font-size: 10px;">4623019</text><line x1="510" x2="510" y1="1575" y2="1580" fill="#ffffff" stroke="#000000" style="stroke-width: 2px;"></line><polyline points="594.9184098272539,539.3439223371734,600.9184098272539,539.3439223371734,600.9184098272539,520.3439223371734,605.9184098272539,520.3439223371734,597.9184098272539,514.3439223371734,589.9184098272539,520.3439223371734,594.9184098272539,520.3439223371734" fill="#b3461e" stroke="#000000" transform="matrix(0.4492,0.8934,-0.8934,0.4492,809.5615,-234.4442)" style=""></polyline><text x="614.9184098272539" y="545.3439223371734" fill="#b3461e" style="font-size: 10px;">Acr-Aca 1: 370404-370404 (+)</text><ellipse cx="581.5813215896884" cy="355.1178619199131" rx="5" ry="10" fill="#ffffff" stroke="#999900" style=""></ellipse><text x="676.3252863587535" y="70.47144767965227" fill="#999900" style="font-size: 10px;">1 Target Position:2242435-2242404</text><line x1="581.5813215896884" x2="676.3252863587535" y1="355.1178619199131" y2="70.47144767965227" fill="#9ca4a2" stroke="#9ca4a2" style="stroke-width: 1px; fill-opacity: 0.5;"></line><ellipse cx="484.54101561560054" cy="374.40157830111167" rx="5" ry="10" fill="#ffffff" stroke="#800080" style=""></ellipse><text x="236.35253903900127" y="261.00394575277926" fill="#800080" style="font-size: 10px;">1 Spacer Position:3065338-3065369</text><line x1="484.54101561560054" x2="386.3525390390013" y1="374.40157830111167" y2="261.00394575277926" fill="#9ca4a2" stroke="#9ca4a2" style="stroke-width: 1px; fill-opacity: 0.5;"></line><path d="M484.54101561560054 374.40157830111167 A56.9216256093356 56.9216256093356, 0, 0 0, 581.5813215896884 355.1178619199131" stroke="#0000ff" fill="none" style=""></path><text x="20" y="1630">CRISPR-Cas Array (Self Targeting Spacers)</text><rect x="479.5260894771053" y="374.414505089667" width="5" height="5" fill="#d11ba1" stroke="#d11ba1" style="stroke-width: 3px;"></rect><text x="504.5260894771053" y="374.414505089667" fill="#d11ba1" style="font-size: 10px;">CAS-TypeIE:3065495-3073953</text><polyline points="20,1680,21.830350748912625,1676.3392985021746,23.66070149782525,1680,21.830350748912625,1683.6607014978254" fill="#000000" stroke="#000000" style=""></polyline><rect x="23.66070149782525" y="1676.3392985021746" width="3.6607014978252512" height="7.3214029956505025" fill="#e8d1d1" stroke="#000000" style=""></rect><polyline points="27.3214029956505,1680,29.151753744563127,1676.3392985021746,30.982104493475752,1680,29.151753744563127,1683.6607014978254" fill="#000000" stroke="#000000" style=""></polyline><rect x="30.982104493475752" y="1676.3392985021746" width="3.6607014978252512" height="7.3214029956505025" fill="#e6c1c1" stroke="#000000" style=""></rect><polyline points="34.642805991301,1680,36.47315674021363,1676.3392985021746,38.303507489126254,1680,36.47315674021363,1683.6607014978254" fill="#000000" stroke="#000000" style=""></polyline><rect x="38.303507489126254" y="1676.3392985021746" width="3.6607014978252512" height="7.3214029956505025" fill="#b3ecf2" stroke="#000000" style=""></rect><polyline points="41.964208986951505,1680,43.794559735864134,1676.3392985021746,45.624910484776755,1680,43.794559735864134,1683.6607014978254" fill="#000000" stroke="#000000" style=""></polyline><rect x="45.624910484776755" y="1676.3392985021746" width="3.6607014978252512" height="7.3214029956505025" fill="#c5d8ed" stroke="#000000" style=""></rect><polyline points="49.285611982602006,1680,51.115962731514635,1676.3392985021746,52.94631348042726,1680,51.115962731514635,1683.6607014978254" fill="#000000" stroke="#000000" style=""></polyline><rect x="52.94631348042726" y="1676.3392985021746" width="3.6607014978252512" height="7.3214029956505025" fill="#d1beeb" stroke="#000000" style=""></rect><polyline points="56.60701497825251,1680,58.43736572716514,1676.3392985021746,60.26771647607776,1680,58.43736572716514,1683.6607014978254" fill="#000000" stroke="#000000" style=""></polyline><rect x="60.26771647607776" y="1676.3392985021746" width="3.6607014978252512" height="7.3214029956505025" fill="#fc81bf" stroke="#000000" style=""></rect><polyline points="63.92841797390301,1680,65.75876872281563,1676.3392985021746,67.58911947172827,1680,65.75876872281563,1683.6607014978254" fill="#000000" stroke="#000000" style=""></polyline><rect x="67.58911947172827" y="1676.3392985021746" width="3.6607014978252512" height="7.3214029956505025" fill="#e8d1d1" stroke="#000000" style=""></rect><polyline points="71.24982096955353,1680,73.08017171846615,1676.3392985021746,74.91052246737878,1680,73.08017171846615,1683.6607014978254" fill="#000000" stroke="#000000" style=""></polyline><rect x="74.91052246737878" y="1676.3392985021746" width="3.6607014978252512" height="7.3214029956505025" fill="#e6c1c1" stroke="#000000" style=""></rect><polyline points="78.57122396520404,1680,80.40157471411666,1676.3392985021746,82.2319254630293,1680,80.40157471411666,1683.6607014978254" fill="#000000" stroke="#000000" style=""></polyline><rect x="82.2319254630293" y="1676.3392985021746" width="3.6607014978252512" height="7.3214029956505025" fill="#b3ecf2" stroke="#000000" style=""></rect><polyline points="85.89262696085456,1680,87.72297770976718,1676.3392985021746,89.55332845867981,1680,87.72297770976718,1683.6607014978254" fill="#000000" stroke="#000000" style=""></polyline><rect x="89.55332845867981" y="1676.3392985021746" width="3.6607014978252512" height="7.3214029956505025" fill="#c5d8ed" stroke="#000000" style=""></rect><polyline points="93.21402995650507,1680,95.0443807054177,1676.3392985021746,96.87473145433033,1680,95.0443807054177,1683.6607014978254" fill="#000000" stroke="#000000" style=""></polyline><rect x="96.87473145433033" y="1676.3392985021746" width="3.6607014978252512" height="7.3214029956505025" fill="#d1beeb" stroke="#000000" style=""></rect><polyline points="100.53543295215559,1680,102.36578370106821,1676.3392985021746,104.19613444998085,1680,102.36578370106821,1683.6607014978254" fill="#000000" stroke="#000000" style=""></polyline><rect x="104.19613444998085" y="1676.3392985021746" width="3.6607014978252512" height="7.3214029956505025" fill="#fc81bf" stroke="#000000" style=""></rect><polyline points="107.8568359478061,1680,109.68718669671873,1676.3392985021746,111.51753744563136,1680,109.68718669671873,1683.6607014978254" fill="#000000" stroke="#000000" style=""></polyline><rect x="111.51753744563136" y="1676.3392985021746" width="3.6607014978252512" height="7.3214029956505025" fill="#e8d1d1" stroke="#000000" style=""></rect><polyline points="115.17823894345662,1680,117.00858969236924,1676.3392985021746,118.83894044128188,1680,117.00858969236924,1683.6607014978254" fill="#000000" stroke="#000000" style=""></polyline><rect x="118.83894044128188" y="1676.3392985021746" width="3.6607014978252512" height="7.3214029956505025" fill="#e6c1c1" stroke="#000000" style=""></rect><polyline points="122.49964193910714,1680,124.32999268801976,1676.3392985021746,126.1603434369324,1680,124.32999268801976,1683.6607014978254" fill="#000000" stroke="#000000" style=""></polyline><rect x="126.1603434369324" y="1676.3392985021746" width="3.6607014978252512" height="7.3214029956505025" fill="#b3ecf2" stroke="#000000" style=""></rect><polyline points="129.82104493475765,1680,131.65139568367027,1676.3392985021746,133.4817464325829,1680,131.65139568367027,1683.6607014978254" fill="#000000" stroke="#000000" style=""></polyline><rect x="133.4817464325829" y="1676.3392985021746" width="3.6607014978252512" height="7.3214029956505025" fill="#c5d8ed" stroke="#000000" style=""></rect><polyline points="137.14244793040814,1680,138.97279867932076,1676.3392985021746,140.80314942823338,1680,138.97279867932076,1683.6607014978254" fill="#000000" stroke="#000000" style=""></polyline><rect x="140.80314942823338" y="1676.3392985021746" width="3.6607014978252512" height="7.3214029956505025" fill="#d1beeb" stroke="#000000" style=""></rect><polyline points="144.46385092605863,1680,146.29420167497125,1676.3392985021746,148.12455242388387,1680,146.29420167497125,1683.6607014978254" fill="#000000" stroke="#000000" style=""></polyline><rect x="148.12455242388387" y="1676.3392985021746" width="3.6607014978252512" height="7.3214029956505025" fill="#fc81bf" stroke="#000000" style=""></rect><polyline points="151.7852539217091,1680,153.61560467062174,1676.3392985021746,155.44595541953436,1680,153.61560467062174,1683.6607014978254" fill="#000000" stroke="#000000" style=""></polyline><rect x="155.44595541953436" y="1676.3392985021746" width="3.6607014978252512" height="7.3214029956505025" fill="#e8d1d1" stroke="#000000" style=""></rect><polyline points="159.1066569173596,1680,160.93700766627222,1676.3392985021746,162.76735841518484,1680,160.93700766627222,1683.6607014978254" fill="#000000" stroke="#000000" style=""></polyline><rect x="162.76735841518484" y="1676.3392985021746" width="3.6607014978252512" height="7.3214029956505025" fill="#e6c1c1" stroke="#000000" style=""></rect><polyline points="166.4280599130101,1680,168.2584106619227,1676.3392985021746,170.08876141083533,1680,168.2584106619227,1683.6607014978254" fill="#000000" stroke="#000000" style=""></polyline><rect x="170.08876141083533" y="1676.3392985021746" width="3.6607014978252512" height="7.3214029956505025" fill="#b3ecf2" stroke="#000000" style=""></rect><polyline points="173.74946290866058,1680,175.5798136575732,1676.3392985021746,177.41016440648582,1680,175.5798136575732,1683.6607014978254" fill="#000000" stroke="#000000" style=""></polyline><rect x="177.41016440648582" y="1676.3392985021746" width="3.6607014978252512" height="7.3214029956505025" fill="#c5d8ed" stroke="#000000" style=""></rect><polyline points="181.07086590431106,1680,182.90121665322368,1676.3392985021746,184.7315674021363,1680,182.90121665322368,1683.6607014978254" fill="#000000" stroke="#000000" style=""></polyline><rect x="184.7315674021363" y="1676.3392985021746" width="3.6607014978252512" height="7.3214029956505025" fill="#d1beeb" stroke="#000000" style=""></rect><polyline points="188.39226889996155,1680,190.22261964887417,1676.3392985021746,192.0529703977868,1680,190.22261964887417,1683.6607014978254" fill="#000000" stroke="#000000" style=""></polyline><rect x="192.0529703977868" y="1676.3392985021746" width="3.6607014978252512" height="7.3214029956505025" fill="#fc81bf" stroke="#000000" style=""></rect><polyline points="195.71367189561204,1680,197.54402264452466,1676.3392985021746,199.37437339343728,1680,197.54402264452466,1683.6607014978254" fill="#000000" stroke="#000000" style=""></polyline><rect x="199.37437339343728" y="1676.3392985021746" width="3.6607014978252512" height="7.3214029956505025" fill="#e8d1d1" stroke="#000000" style=""></rect><polyline points="203.03507489126252,1680,204.86542564017515,1676.3392985021746,206.69577638908777,1680,204.86542564017515,1683.6607014978254" fill="#000000" stroke="#000000" style=""></polyline><text x="20" y="1660" fill="#000000" stroke="#000000" style="font-size: 10px; stroke-width: 0.3px;">CRISPR (NZ_CP039610_1:3063844-3065398)</text><line x1="20" x2="214.0171793847383" y1="1715" y2="1715" fill="#ffffff" stroke="#000000" style="stroke-width: 2px;"></line><line x1="20" x2="20" y1="1715" y2="1720" fill="#ffffff" stroke="#000000" style="stroke-width: 2px;"></line><text x="20" y="1731" fill="#000000" style="font-size: 10px;">3063844</text><line x1="120" x2="120" y1="1715" y2="1720" fill="#ffffff" stroke="#000000" style="stroke-width: 2px;"></line><text x="120" y="1731" fill="#000000" style="font-size: 10px;">3064644</text><line x1="214.0171793847383" x2="214.0171793847383" y1="1715" y2="1720" fill="#ffffff" stroke="#000000" style="stroke-width: 2px;"></line><text x="214.0171793847383" y="1690" fill="#000000" stroke="#000000" style="">......</text><text x="214.0171793847383" y="1715" fill="#000000" stroke="#000000" style="">......</text><text x="650" y="1660" stroke="#000000" style="font-size: 12px; stroke-width: 0.5px;">CAS-TypeIE[3065495, 3073953]</text><polyline points="244.0171793847383,1680,249.0171793847383,1670,249.0171793847383,1675,280.59828206152616,1675,280.59828206152616,1685,249.0171793847383,1685,249.0171793847383,1690" fill="#ffc0cb" stroke="#ffc0cb" style=""></polyline><text x="262.30773072313224" y="1670" stroke="#000000" style="font-size: 12px; stroke-width: 0.5px;">cas2</text><line x1="262.30773072313224" x2="262.30773072313224" y1="1680" y2="1670" stroke="#000000" fill="#000000" style=""></line><polyline points="280.59828206152616,1680,285.59828206152616,1670,285.59828206152616,1675,395.4604474630444,1675,395.4604474630444,1685,285.59828206152616,1685,285.59828206152616,1690" fill="#ffc0cb" stroke="#ffc0cb" style=""></polyline><text x="338.02936476228524" y="1670" stroke="#000000" style="font-size: 12px; stroke-width: 0.5px;">cas1</text><line x1="338.02936476228524" x2="338.02936476228524" y1="1680" y2="1670" stroke="#000000" fill="#000000" style=""></line><polyline points="395.08589692369156,1680,400.08589692369156,1670,400.08589692369156,1675,476.23851378345984,1675,476.23851378345984,1685,400.08589692369156,1685,400.08589692369156,1690" fill="#ffc0cb" stroke="#ffc0cb" style=""></polyline><text x="435.6622053535757" y="1670" stroke="#000000" style="font-size: 12px; stroke-width: 0.5px;">cas6</text><line x1="435.6622053535757" x2="435.6622053535757" y1="1680" y2="1670" stroke="#000000" fill="#000000" style=""></line><polyline points="473.99121054734314,1680,478.99121054734314,1670,478.99121054734314,1675,567.1294446664003,1675,567.1294446664003,1685,478.99121054734314,1685,478.99121054734314,1690" fill="#ffc0cb" stroke="#ffc0cb" style=""></polyline><text x="520.5603276068717" y="1670" stroke="#000000" style="font-size: 12px; stroke-width: 0.5px;">cas5</text><line x1="520.5603276068717" x2="520.5603276068717" y1="1680" y2="1670" stroke="#000000" fill="#000000" style=""></line><polyline points="568.5027966440272,1680,573.5027966440272,1670,573.5027966440272,1675,700.5942868557731,1675,700.5942868557731,1685,573.5027966440272,1685,573.5027966440272,1690" fill="#ffc0cb" stroke="#ffc0cb" style=""></polyline><text x="634.5485417499001" y="1670" stroke="#000000" style="font-size: 12px; stroke-width: 0.5px;">cas7</text><line x1="634.5485417499001" x2="634.5485417499001" y1="1680" y2="1670" stroke="#000000" fill="#000000" style=""></line><polyline points="702.3421893727527,1680,707.3421893727527,1670,707.3421893727527,1675,772.2582900519376,1675,772.2582900519376,1685,707.3421893727527,1685,707.3421893727527,1690" fill="#ffc0cb" stroke="#ffc0cb" style=""></polyline><text x="737.3002397123452" y="1670" stroke="#000000" style="font-size: 12px; stroke-width: 0.5px;">cse2</text><line x1="737.3002397123452" x2="737.3002397123452" y1="1680" y2="1670" stroke="#000000" fill="#000000" style=""></line><polyline points="771.883739512585,1680,776.883739512585,1670,776.883739512585,1675,953.7904514582501,1675,953.7904514582501,1685,776.883739512585,1685,776.883739512585,1690" fill="#ffc0cb" stroke="#ffc0cb" style=""></polyline><text x="862.8370954854175" y="1670" stroke="#000000" style="font-size: 12px; stroke-width: 0.5px;">cse1</text><line x1="862.8370954854175" x2="862.8370954854175" y1="1680" y2="1670" stroke="#000000" fill="#000000" style=""></line><polyline points="1025.9538553735517,1680,1030.9538553735517,1670,1030.9538553735517,1675,1300,1675,1300,1685,1030.9538553735517,1685,1030.9538553735517,1690" fill="#ffc0cb" stroke="#ffc0cb" style=""></polyline><text x="1162.976927686776" y="1670" stroke="#000000" style="font-size: 12px; stroke-width: 0.5px;">cas3</text><line x1="1162.976927686776" x2="1162.976927686776" y1="1680" y2="1670" stroke="#000000" fill="#000000" style=""></line><line x1="244.0171793847383" x2="1300" y1="1710" y2="1710" fill="#ffffff" stroke="#000000" style="stroke-width: 2px;"></line><line x1="244.0171793847383" x2="244.0171793847383" y1="1710" y2="1715" fill="#ffffff" stroke="#000000" style="stroke-width: 2px;"></line><text x="244.0171793847383" y="1726" fill="#000000" style="font-size: 10px;">3065495</text><line x1="344.0171793847383" x2="344.0171793847383" y1="1710" y2="1715" fill="#ffffff" stroke="#000000" style="stroke-width: 2px;"></line><text x="344.0171793847383" y="1726" fill="#000000" style="font-size: 10px;">3066295</text><line x1="444.0171793847383" x2="444.0171793847383" y1="1710" y2="1715" fill="#ffffff" stroke="#000000" style="stroke-width: 2px;"></line><text x="444.0171793847383" y="1726" fill="#000000" style="font-size: 10px;">3067096</text><line x1="544.0171793847383" x2="544.0171793847383" y1="1710" y2="1715" fill="#ffffff" stroke="#000000" style="stroke-width: 2px;"></line><text x="544.0171793847383" y="1726" fill="#000000" style="font-size: 10px;">3067897</text><line x1="644.0171793847383" x2="644.0171793847383" y1="1710" y2="1715" fill="#ffffff" stroke="#000000" style="stroke-width: 2px;"></line><text x="644.0171793847383" y="1726" fill="#000000" style="font-size: 10px;">3068698</text><line x1="744.0171793847383" x2="744.0171793847383" y1="1710" y2="1715" fill="#ffffff" stroke="#000000" style="stroke-width: 2px;"></line><text x="744.0171793847383" y="1726" fill="#000000" style="font-size: 10px;">3069499</text><line x1="844.0171793847383" x2="844.0171793847383" y1="1710" y2="1715" fill="#ffffff" stroke="#000000" style="stroke-width: 2px;"></line><text x="844.0171793847383" y="1726" fill="#000000" style="font-size: 10px;">3070300</text><line x1="944.0171793847383" x2="944.0171793847383" y1="1710" y2="1715" fill="#ffffff" stroke="#000000" style="stroke-width: 2px;"></line><text x="944.0171793847383" y="1726" fill="#000000" style="font-size: 10px;">3071101</text><line x1="1044.0171793847383" x2="1044.0171793847383" y1="1710" y2="1715" fill="#ffffff" stroke="#000000" style="stroke-width: 2px;"></line><text x="1044.0171793847383" y="1726" fill="#000000" style="font-size: 10px;">3071902</text><line x1="1144.0171793847383" x2="1144.0171793847383" y1="1710" y2="1715" fill="#ffffff" stroke="#000000" style="stroke-width: 2px;"></line><text x="1144.0171793847383" y="1726" fill="#000000" style="font-size: 10px;">3072703</text><line x1="1244.0171793847383" x2="1244.0171793847383" y1="1710" y2="1715" fill="#ffffff" stroke="#000000" style="stroke-width: 2px;"></line><text x="1244.0171793847383" y="1726" fill="#000000" style="font-size: 10px;">3073504</text><line x1="1300" x2="1300" y1="1710" y2="1715" fill="#ffffff" stroke="#000000" style="stroke-width: 2px;"></line><polyline points="647.4444269754645,472.4629395098541,653.4444269754645,472.4629395098541,653.4444269754645,453.4629395098541,658.4444269754645,453.4629395098541,650.4444269754645,447.4629395098541,642.4444269754645,453.4629395098541,647.4444269754645,453.4629395098541" fill="#0000ff" stroke="#000000" transform="matrix(-0.9744,-0.2246,0.2246,-0.9744,1172.2139,1078.2868)" style=""></polyline><text x="667.4444269754645" y="478.4629395098541" fill="#0000ff" style="font-size: 10px;">Acr-Aca 2: 1068815-1069506 (-)</text><polyline points="647.7952406891437,470.882789529956,653.7952406891437,470.882789529956,653.7952406891437,451.882789529956,658.7952406891437,451.882789529956,650.7952406891437,445.882789529956,642.7952406891437,451.882789529956,647.7952406891437,451.882789529956" fill="#b3461e" stroke="#000000" transform="matrix(0.978,0.2088,-0.2088,0.978,112.6158,-124.8959)" style=""></polyline><text x="669.9961033373091" y="456.882789529956" fill="#b3461e" style="font-size: 10px;">Acr-Aca 3: 1081685-1082267 (+)</text><polyline points="599.9857128037655,363.3892124761617,605.9857128037655,363.3892124761617,605.9857128037655,344.3892124761617,610.9857128037655,344.3892124761617,602.9857128037655,338.3892124761617,594.9857128037655,344.3892124761617,599.9857128037655,344.3892124761617" fill="#0000ff" stroke="#000000" transform="matrix(-0.4999,0.8661,-0.8661,-0.4999,1214.6271,25.3795)" style=""></polyline><text x="619.9857128037655" y="369.3892124761617" fill="#0000ff" style="font-size: 10px;">Acr-Aca 4: 2081727-2082658 (-)</text><polyline points="545.0128294058716,350.1244367752298,551.0128294058716,350.1244367752298,551.0128294058716,331.1244367752298,556.0128294058716,331.1244367752298,548.0128294058716,325.1244367752298,540.0128294058716,331.1244367752298,545.0128294058716,331.1244367752298" fill="#b3461e" stroke="#000000" transform="matrix(-0.0499,-0.9988,0.9988,-0.0499,222.5048,911.9204)" style=""></polyline><text x="365.01282940587225" y="356.1244367752298" fill="#b3461e" style="font-size: 10px;">Acr-Aca 5: 2537585-2538341 (+)</text><polyline points="514.2525058200392,356.6077269799387,520.2525058200392,356.6077269799387,520.2525058200392,337.6077269799387,525.2525058200392,337.6077269799387,517.2525058200392,331.6077269799387,509.25250582003923,337.6077269799387,514.2525058200392,337.6077269799387" fill="#0000ff" stroke="#000000" transform="matrix(0.3575,0.9339,-0.9339,0.3575,663.4642,-251.1427)" style=""></polyline><text x="302.0767031060124" y="382.6077269799387" fill="#0000ff" style="font-size: 10px;">Acr-Aca 6: 2788578-2789314 (-)</text><polyline points="461.53535757746977,496.6262484128186,467.53535757746977,496.6262484128186,467.53535757746977,477.6262484128186,472.53535757746977,477.6262484128186,464.53535757746977,471.6262484128186,456.53535757746977,477.6262484128186,461.53535757746977,477.6262484128186" fill="#b3461e" stroke="#000000" transform="matrix(-0.8846,0.4663,-0.4663,-0.8846,1101.3891,720.7683)" style=""></polyline><text x="281.53535757746977" y="502.6262484128186" fill="#b3461e" style="font-size: 10px;">Acr-Aca 7: 4132550-4133205 (+)</text><polyline points="469.98503586750394,509.980042638159,475.98503586750394,509.980042638159,475.98503586750394,490.980042638159,480.98503586750394,490.980042638159,472.98503586750394,484.980042638159,464.98503586750394,490.980042638159,469.98503586750394,490.980042638159" fill="#b3461e" stroke="#000000" transform="matrix(-0.8001,0.5998,-0.5998,-0.8001,1151.9296,636.1432)" style=""></polyline><text x="309.973399399947" y="535.9800426381589" fill="#b3461e" style="font-size: 10px;">Acr-Aca 8: 4258329-4258931 (+)</text><polyline points="493.56540440553476,532.5538395236052,499.56540440553476,532.5538395236052,499.56540440553476,513.5538395236052,504.56540440553476,513.5538395236052,496.56540440553476,507.55383952360523,488.56540440553476,513.5538395236052,493.56540440553476,513.5538395236052" fill="#b3461e" stroke="#000000" transform="matrix(-0.5643,0.8255,-0.8255,-0.5643,1211.7507,425.6413)" style=""></polyline><text x="313.56540440553476" y="558.5538395236052" fill="#b3461e" style="font-size: 10px;">Acr-Aca 9: 4519049-4519759 (+)</text><polyline points="504.76645770106853,539.1847893482446,510.76645770106853,539.1847893482446,510.76645770106853,520.1847893482446,515.7664577010685,520.1847893482446,507.76645770106853,514.1847893482446,499.76645770106853,520.1847893482446,504.76645770106853,520.1847893482446" fill="#b3461e" stroke="#000000" transform="matrix(-0.4523,0.8918,-0.8918,-0.4523,1213.961,332.9023)" style=""></polyline><text x="324.76645770106853" y="578.5538395236052" fill="#b3461e" style="font-size: 10px;">Acr-Aca 10: 4622619-4623119 (+)</text></svg>